# xmcd
#
# Track frame offsets:
#	150
#	15381
#	29518
#	44825
#	61581
#	79501
#	95048
#	106632
#	121059
#	133737
#	155195
#	171557
#	184272
#	198927
#	213190
#
# Disc length: 3024 seconds
#
# Revision: 0
# Processed by: cddbd v1.5.2PL0 Copyright (c) Steve Scherf et al.
# Submitted via: audiograbber 1.83.01
#
DISCID=ca0bce0f
DTITLE=Jean Fraçois Michäel - Adieu jolie Candy - 1960's
DYEAR=2010
DGENRE=Variété Française
TTITLE0=Adieu jolie Candy
TTITLE1=Je veux vivre auprès de toi
TTITLE2=Comme j'ai toujours envie d'aimer
TTITLE3=L'amour
TTITLE4=Pars pas
TTITLE5=Si l'amour existe encore
TTITLE6=Toi
TTITLE7=Adios Querina Luna
TTITLE8=Chouans en avant
TTITLE9=La vie continue
TTITLE10=Rappelle-toi Candy
TTITLE11=Coupable
TTITLE12=Je pense à toi
TTITLE13=Elle et moi
TTITLE14=Du fond du coeur
EXTD=2010
EXTT0=
EXTT1=
EXTT2=
EXTT3=
EXTT4=
EXTT5=
EXTT6=
EXTT7=
EXTT8=
EXTT9=
EXTT10=
EXTT11=
EXTT12=
EXTT13=
EXTT14=
PLAYORDER=
